<svg width="394" height="394" viewBox="0 0 394 394" fill="none" xmlns="http://www.w3.org/2000/svg">
<path d="M304.743 114.449C304.743 114.449 279.346 80.4154 237.188 78.012C195.03 75.6086 171.516 104.371 154.259 125.946C137.002 147.521 84.7573 135.047 53.1191 168.128C21.4809 201.208 36.8232 220.372 50.7551 239.544C64.6869 258.716 78.012 261.616 78.012 277.423C78.012 293.231 85.6871 314.333 115.883 319.124C146.079 323.915 177.237 294.696 198.804 305.728C220.372 316.76 256.565 325.381 278.739 319.124C300.914 312.868 294.192 289.882 318.139 282.214C342.087 274.547 365.112 250.576 361.755 224.69C358.398 198.805 339.226 194.013 331.078 169.089C322.93 144.165 311.457 124.993 304.743 114.449Z" fill="#6789FF"/>
<path opacity="0.7" d="M304.743 114.449C304.743 114.449 279.346 80.4154 237.188 78.012C195.03 75.6086 171.516 104.371 154.259 125.946C137.002 147.521 84.7573 135.047 53.1191 168.128C21.4809 201.208 36.8232 220.372 50.7551 239.544C64.6869 258.716 78.012 261.616 78.012 277.423C78.012 293.231 85.6871 314.333 115.883 319.124C146.079 323.915 177.237 294.696 198.804 305.728C220.372 316.76 256.565 325.381 278.739 319.124C300.914 312.868 294.192 289.882 318.139 282.214C342.087 274.547 365.112 250.576 361.755 224.69C358.398 198.805 339.226 194.013 331.078 169.089C322.93 144.165 311.457 124.993 304.743 114.449Z" fill="white"/>
<path d="M333.623 324.514C333.623 325.909 289.495 327.036 235.123 327.036C180.751 327.036 136.623 325.909 136.623 324.514C136.623 323.119 180.751 322 235.123 322C289.495 322 333.623 323.127 333.623 324.514Z" fill="#2E353A"/>
<path d="M255.691 90.817H163.14C160.259 90.817 157.923 93.1525 157.923 96.0336V132.211C157.923 135.092 160.259 137.427 163.14 137.427H255.691C258.572 137.427 260.907 135.092 260.907 132.211V96.0336C260.907 93.1525 258.572 90.817 255.691 90.817Z" fill="#6789FF"/>
<path d="M157.923 129.232V146.056L167.308 135.252" fill="#6789FF"/>
<path d="M255.698 90.817H163.116C162.431 90.817 161.753 90.952 161.121 91.2142C160.488 91.4765 159.914 91.8609 159.43 92.3454C158.946 92.8299 158.563 93.405 158.302 94.0379C158.04 94.6707 157.906 95.3489 157.907 96.0336V146.056L165.409 137.427H255.698C256.383 137.427 257.061 137.292 257.693 137.03C258.326 136.768 258.9 136.383 259.384 135.899C259.868 135.414 260.251 134.839 260.513 134.206C260.774 133.573 260.908 132.895 260.907 132.211V96.0336C260.908 95.3489 260.774 94.6707 260.513 94.0379C260.251 93.405 259.868 92.8299 259.384 92.3454C258.9 91.8609 258.326 91.4765 257.693 91.2142C257.061 90.952 256.383 90.817 255.698 90.817Z" fill="#6789FF"/>
<path opacity="0.1" d="M255.698 90.817H163.116C162.431 90.817 161.753 90.952 161.121 91.2142C160.488 91.4765 159.914 91.8609 159.43 92.3454C158.946 92.8299 158.563 93.405 158.302 94.0379C158.04 94.6707 157.906 95.3489 157.907 96.0336V146.056L165.409 137.427H255.698C256.383 137.427 257.061 137.292 257.693 137.03C258.326 136.768 258.9 136.383 259.384 135.899C259.868 135.414 260.251 134.839 260.513 134.206C260.774 133.573 260.908 132.895 260.907 132.211V96.0336C260.908 95.3489 260.774 94.6707 260.513 94.0379C260.251 93.405 259.868 92.8299 259.384 92.3454C258.9 91.8609 258.326 91.4765 257.693 91.2142C257.061 90.952 256.383 90.817 255.698 90.817Z" fill="#6789FF"/>
<path d="M237.188 116.388H170.689C170.196 116.388 169.722 116.192 169.374 115.843C169.025 115.494 168.829 115.021 168.829 114.528C168.831 114.036 169.028 113.565 169.377 113.218C169.725 112.871 170.197 112.676 170.689 112.676H237.188C237.68 112.676 238.152 112.871 238.5 113.218C238.849 113.565 239.046 114.036 239.048 114.528C239.048 114.772 239 115.014 238.906 115.24C238.813 115.465 238.676 115.67 238.503 115.843C238.33 116.016 238.125 116.153 237.9 116.246C237.674 116.339 237.432 116.388 237.188 116.388Z" fill="white"/>
<path d="M237.188 124.93H170.689C170.445 124.93 170.203 124.881 169.977 124.788C169.751 124.695 169.546 124.558 169.374 124.385C169.201 124.212 169.064 124.007 168.971 123.782C168.877 123.556 168.829 123.314 168.829 123.07C168.831 122.578 169.028 122.107 169.377 121.76C169.725 121.413 170.197 121.218 170.689 121.218H237.188C237.68 121.218 238.152 121.413 238.5 121.76C238.849 122.107 239.046 122.578 239.048 123.07C239.048 123.314 239 123.556 238.906 123.782C238.813 124.007 238.676 124.212 238.503 124.385C238.33 124.558 238.125 124.695 237.9 124.788C237.674 124.881 237.432 124.93 237.188 124.93Z" fill="white"/>
<path d="M174.4 107.846C178.091 107.846 181.082 104.854 181.082 101.163C181.082 97.4729 178.091 94.4812 174.4 94.4812C170.71 94.4812 167.718 97.4729 167.718 101.163C167.718 104.854 170.71 107.846 174.4 107.846Z" fill="white"/>
<path d="M255.69 153.896H163.14C160.259 153.896 157.923 156.232 157.923 159.113V195.29C157.923 198.171 160.259 200.507 163.14 200.507H255.69C258.571 200.507 260.907 198.171 260.907 195.29V159.113C260.907 156.232 258.571 153.896 255.69 153.896Z" fill="#6789FF"/>
<path d="M157.923 192.304V209.135L167.308 198.324" fill="#6789FF"/>
<path d="M255.698 153.896H163.116C161.735 153.896 160.41 154.445 159.433 155.422C158.456 156.399 157.907 157.724 157.907 159.105V209.135L165.409 200.467H255.698C257.08 200.467 258.404 199.918 259.381 198.942C260.358 197.965 260.907 196.64 260.907 195.259V159.105C260.907 157.724 260.358 156.399 259.381 155.422C258.404 154.445 257.08 153.896 255.698 153.896Z" fill="#6789FF"/>
<path opacity="0.1" d="M255.698 153.896H163.116C161.735 153.896 160.41 154.445 159.433 155.422C158.456 156.399 157.907 157.724 157.907 159.105V209.135L165.409 200.467H255.698C257.08 200.467 258.404 199.918 259.381 198.942C260.358 197.965 260.907 196.64 260.907 195.259V159.105C260.907 157.724 260.358 156.399 259.381 155.422C258.404 154.445 257.08 153.896 255.698 153.896Z" fill="#6789FF"/>
<path d="M237.188 179.459H170.689C170.197 179.459 169.725 179.264 169.377 178.917C169.028 178.57 168.831 178.099 168.829 177.607C168.829 177.114 169.025 176.641 169.374 176.292C169.722 175.944 170.196 175.748 170.689 175.748H237.188C237.432 175.748 237.674 175.796 237.9 175.889C238.125 175.983 238.33 176.12 238.503 176.292C238.676 176.465 238.813 176.67 238.906 176.896C239 177.121 239.048 177.363 239.048 177.607C239.046 178.099 238.849 178.57 238.5 178.917C238.152 179.264 237.68 179.459 237.188 179.459Z" fill="white"/>
<path d="M237.188 188.001H170.689C170.197 188.001 169.725 187.806 169.377 187.459C169.028 187.112 168.831 186.641 168.829 186.149C168.829 185.656 169.025 185.183 169.374 184.834C169.722 184.485 170.196 184.29 170.689 184.29H237.188C237.432 184.29 237.674 184.338 237.9 184.431C238.125 184.525 238.33 184.662 238.503 184.834C238.676 185.007 238.813 185.212 238.906 185.438C239 185.663 239.048 185.905 239.048 186.149C239.046 186.641 238.849 187.112 238.5 187.459C238.152 187.806 237.68 188.001 237.188 188.001Z" fill="white"/>
<path d="M174.4 170.917C178.091 170.917 181.082 167.925 181.082 164.235C181.082 160.544 178.091 157.553 174.4 157.553C170.71 157.553 167.718 160.544 167.718 164.235C167.718 167.925 170.71 170.917 174.4 170.917Z" fill="white"/>
<path d="M86.4042 246.25C86.3333 246.25 86.0181 241.309 86.0338 240.994C86.2151 237.346 88.7209 230.395 92.6846 229.34C93.3462 229.181 94.0338 229.165 94.7024 229.29C95.371 229.416 96.0056 229.681 96.5648 230.068C97.124 230.456 97.5952 230.957 97.9476 231.538C98.3001 232.12 98.5259 232.77 98.6103 233.445C99.0674 236.298 97.2077 239.339 95.3244 241.325C93.1022 243.626 86.4042 246.25 86.4042 246.25Z" fill="#2E353A"/>
<path d="M81.2349 227.212C81.164 227.212 81.5974 222.279 81.6604 221.964C82.4012 218.386 85.9314 211.893 89.9975 211.452C90.6756 211.396 91.3579 211.484 91.9998 211.71C92.6417 211.935 93.229 212.294 93.7233 212.761C94.2176 213.229 94.6079 213.795 94.8689 214.424C95.1298 215.052 95.2555 215.728 95.2377 216.408C95.2377 219.3 92.9604 222.027 90.8013 223.69C88.256 225.644 81.2349 227.212 81.2349 227.212Z" fill="#2E353A"/>
<path d="M79.9268 204.746C79.8559 204.746 80.2972 199.813 80.3602 199.498C81.0931 195.92 84.6233 189.427 88.6973 188.986C89.375 188.93 90.0569 189.018 90.6985 189.244C91.34 189.47 91.9268 189.828 92.4205 190.296C92.9142 190.763 93.3038 191.33 93.5638 191.958C93.8238 192.587 93.9485 193.263 93.9296 193.943C93.9296 196.835 91.6601 199.553 89.4931 201.224C86.9479 203.178 79.9347 204.746 79.9268 204.746Z" fill="#2E353A"/>
<path d="M77.6653 183.604C77.5944 183.604 78.0356 178.663 78.0987 178.356C78.8315 174.771 82.3618 168.285 86.4357 167.836C87.1139 167.782 87.796 167.871 88.4375 168.097C89.0791 168.324 89.6657 168.683 90.1593 169.151C90.6529 169.619 91.0423 170.186 91.3022 170.815C91.5622 171.444 91.6868 172.12 91.668 172.801C91.668 175.685 89.3986 178.411 87.2316 180.074C84.6864 182.028 77.6732 183.604 77.6653 183.604Z" fill="#2E353A"/>
<path d="M70.92 166.638C70.8569 166.638 69.9744 161.776 69.9507 161.461C69.7143 157.813 71.4085 150.618 75.2146 149.121C75.8537 148.888 76.5347 148.792 77.2134 148.84C77.892 148.887 78.553 149.078 79.1531 149.398C79.7532 149.719 80.2789 150.162 80.6961 150.7C81.1132 151.237 81.4122 151.857 81.5737 152.517C82.3617 155.299 80.8645 158.53 79.2097 160.705C77.287 163.266 70.92 166.638 70.92 166.638Z" fill="#2E353A"/>
<path d="M84.316 246.305C84.3948 246.305 82.2436 241.806 82.0702 241.538C80.1238 238.449 74.5369 233.61 70.5733 234.627C69.9198 234.814 69.313 235.136 68.7924 235.573C68.2717 236.01 67.849 236.551 67.5516 237.162C67.2542 237.773 67.0889 238.44 67.0665 239.119C67.044 239.799 67.1649 240.475 67.4213 241.104C68.4142 243.823 71.5189 245.564 74.135 246.36C77.224 247.298 84.316 246.305 84.316 246.305Z" fill="#2E353A"/>
<path d="M80.179 224.667C80.2578 224.667 77.4447 220.538 77.2398 220.301C74.8758 217.535 68.5718 213.603 64.8288 215.203C64.2094 215.485 63.6566 215.895 63.2065 216.406C62.7565 216.917 62.4193 217.517 62.217 218.167C62.0147 218.817 61.9518 219.502 62.0325 220.178C62.1133 220.854 62.3357 221.506 62.6854 222.09C64.0723 224.619 67.4134 225.872 70.1163 226.266C73.284 226.723 80.179 224.667 80.179 224.667Z" fill="#2E353A"/>
<path d="M78.9891 203.469C79.06 203.469 76.2547 199.34 76.0499 199.104C73.6859 196.338 67.3819 192.406 63.631 194.013C63.0049 194.294 62.4456 194.704 61.9899 195.217C61.5343 195.73 61.1928 196.334 60.9879 196.989C60.7831 197.644 60.7196 198.334 60.8016 199.016C60.8837 199.697 61.1095 200.353 61.464 200.94C62.8587 203.469 66.192 204.722 68.9027 205.109C72.0941 205.534 78.9891 203.477 78.9891 203.469Z" fill="#2E353A"/>
<path d="M76.9482 184.022C77.027 184.022 74.2138 179.893 74.0089 179.656C71.6449 176.89 65.3409 172.958 61.5979 174.558C60.9786 174.84 60.4258 175.25 59.9757 175.761C59.5256 176.272 59.1884 176.872 58.9861 177.522C58.7838 178.172 58.721 178.857 58.8017 179.533C58.8824 180.209 59.1049 180.861 59.4546 181.445C60.8415 183.982 64.1826 185.227 66.8854 185.621C70.0532 186.078 76.9482 184.022 76.9482 184.022Z" fill="#2E353A"/>
<path d="M70.9673 167.277C71.0382 167.277 67.8153 163.478 67.5631 163.258C64.8839 160.776 58.2332 157.553 54.6636 159.562C54.0775 159.911 53.5718 160.38 53.1798 160.938C52.7877 161.496 52.5181 162.131 52.3886 162.801C52.2591 163.471 52.2727 164.16 52.4285 164.824C52.5843 165.488 52.8787 166.112 53.2924 166.654C54.9551 169.018 58.4066 169.901 61.1724 169.987C64.3402 170.082 70.9673 167.285 70.9673 167.277Z" fill="#2E353A"/>
<path d="M62.3702 153.439C62.4411 153.439 61.3064 148.601 61.204 148.302C59.9668 144.858 55.554 138.94 51.4564 139.074C50.7772 139.115 50.1144 139.299 49.511 139.614C48.9076 139.928 48.3771 140.366 47.9542 140.899C47.5312 141.432 47.2252 142.048 47.0561 142.707C46.887 143.366 46.8586 144.053 46.9727 144.724C47.3667 147.592 50.0222 149.956 52.402 151.296C55.1994 152.872 62.3623 153.439 62.3702 153.439Z" fill="#2E353A"/>
<path d="M93.2913 271.781C93.2913 271.781 92.4482 269.851 91.1243 266.47C89.8005 263.09 87.9723 258.212 86.0338 252.286C85.0646 249.323 84.0796 246.092 83.1182 242.649C82.6297 240.915 82.1884 239.174 81.7077 237.306C81.5028 236.392 81.3058 235.47 81.101 234.54C80.8961 233.61 80.7542 232.625 80.5809 231.656C79.9589 227.681 79.5564 223.675 79.3752 219.655C79.1782 215.565 79.0994 211.428 78.997 207.291C78.8946 203.154 78.7921 199.033 78.4612 194.998C78.1725 191.047 77.6064 187.121 76.767 183.249C75.9215 179.644 74.7559 176.12 73.284 172.722C71.9696 169.664 70.4777 166.685 68.816 163.802C67.2952 161.099 65.735 158.727 64.3402 156.631C62.9454 154.535 61.6374 152.77 60.542 151.328C58.3514 148.443 56.9803 146.899 56.9803 146.899C56.9803 146.899 58.3829 148.42 60.6445 151.249C61.7634 152.675 63.103 154.401 64.5845 156.481C66.0659 158.561 67.6419 160.894 69.2258 163.573C70.9723 166.439 72.551 169.405 73.9538 172.454C75.5256 175.861 76.7939 179.399 77.7441 183.029C78.6794 186.918 79.3403 190.867 79.722 194.849C80.1396 198.923 80.3524 203.068 80.51 207.205C80.6676 211.342 80.8646 215.463 81.1482 219.505C81.4138 223.447 81.8925 227.372 82.5824 231.262C82.7794 232.2 82.8976 233.114 83.1419 234.044C83.3862 234.974 83.591 235.888 83.8117 236.794C84.3002 238.52 84.7967 240.316 85.3168 241.995C86.3333 245.375 87.3813 248.551 88.4057 251.451C90.4388 257.282 92.3457 262.057 93.7405 265.383C95.1352 268.708 95.9942 270.552 95.9942 270.552C96.1241 270.893 96.12 271.27 95.9829 271.608C95.8457 271.946 95.5857 272.219 95.255 272.373C94.9244 272.527 94.5477 272.55 94.2009 272.437C93.8541 272.324 93.5629 272.084 93.3859 271.765L93.2913 271.781Z" fill="#2E353A"/>
<path d="M111.849 241.238C111.778 241.238 112.889 236.392 112.991 236.093C114.205 232.649 118.586 226.7 122.676 226.81C123.355 226.846 124.019 227.026 124.624 227.336C125.229 227.646 125.762 228.08 126.189 228.611C126.615 229.141 126.924 229.755 127.097 230.413C127.27 231.071 127.302 231.757 127.191 232.428C126.821 235.297 124.181 237.684 121.809 239.04C118.988 240.632 111.896 241.238 111.849 241.238Z" fill="#2E353A"/>
<path d="M112.306 221.523C112.235 221.523 114.063 216.889 114.213 216.613C115.938 213.383 121.163 208.166 125.19 208.899C125.856 209.038 126.485 209.316 127.036 209.715C127.588 210.113 128.049 210.624 128.39 211.212C128.732 211.801 128.945 212.455 129.017 213.132C129.088 213.808 129.017 214.493 128.807 215.14C128.019 217.921 125.032 219.868 122.503 220.853C119.484 222.003 112.314 221.523 112.306 221.523Z" fill="#2E353A"/>
<path d="M117.412 199.608C117.333 199.608 119.161 194.975 119.311 194.699C121.037 191.476 126.269 186.26 130.296 186.985C130.962 187.125 131.591 187.404 132.143 187.803C132.694 188.203 133.155 188.714 133.495 189.303C133.836 189.893 134.048 190.548 134.119 191.225C134.189 191.902 134.116 192.586 133.905 193.233C133.117 196.007 130.13 197.961 127.601 198.946C124.622 200.097 117.412 199.608 117.412 199.608Z" fill="#2E353A"/>
<path d="M121.281 178.703C121.202 178.703 123.03 174.077 123.18 173.793C124.906 170.57 130.138 165.354 134.165 166.087C134.831 166.226 135.46 166.504 136.011 166.903C136.562 167.301 137.023 167.812 137.364 168.401C137.705 168.99 137.917 169.644 137.988 170.321C138.058 170.997 137.986 171.681 137.774 172.328C136.986 175.109 133.999 177.056 131.47 178.041C128.444 179.191 121.281 178.703 121.281 178.703Z" fill="#2E353A"/>
<path d="M119.65 160.508C119.571 160.508 120.115 155.583 120.186 155.275C120.974 151.706 124.662 145.291 128.743 144.937C129.422 144.896 130.102 144.999 130.739 145.238C131.375 145.478 131.954 145.849 132.438 146.327C132.922 146.804 133.3 147.379 133.547 148.012C133.794 148.646 133.906 149.324 133.873 150.004C133.873 152.896 131.509 155.567 129.287 157.182C126.703 159.081 119.65 160.508 119.65 160.508Z" fill="#2E353A"/>
<path d="M109.863 240.702C109.934 240.702 109.146 235.801 109.075 235.502C108.09 231.979 104.111 225.754 100.021 225.597C99.34 225.589 98.6651 225.725 98.0403 225.995C97.4155 226.266 96.8547 226.665 96.3945 227.167C95.9343 227.669 95.585 228.262 95.3694 228.908C95.1537 229.554 95.0767 230.238 95.1431 230.916C95.3244 233.8 97.8066 236.353 100.084 237.858C102.747 239.631 109.855 240.702 109.863 240.702Z" fill="#2E353A"/>
<path d="M112.022 218.78C112.101 218.78 110.572 214.052 110.446 213.753C108.933 210.42 104.055 204.872 99.9893 205.337C99.3155 205.433 98.6696 205.67 98.0935 206.033C97.5174 206.395 97.0241 206.875 96.6457 207.44C96.2673 208.006 96.0123 208.645 95.8973 209.316C95.7824 209.987 95.81 210.674 95.9784 211.334C96.593 214.155 99.4377 216.306 101.912 217.449C104.804 218.796 112.014 218.78 112.022 218.78Z" fill="#2E353A"/>
<path d="M116.908 198.119C116.979 198.119 115.458 193.391 115.332 193.092C113.827 189.766 108.949 184.219 104.883 184.684C104.207 184.778 103.558 185.015 102.98 185.378C102.401 185.741 101.906 186.222 101.527 186.79C101.147 187.357 100.892 187.999 100.778 188.672C100.664 189.345 100.693 190.035 100.864 190.696C101.487 193.525 104.323 195.668 106.806 196.811C109.713 198.135 116.9 198.119 116.908 198.119Z" fill="#2E353A"/>
<path d="M120.477 178.876C120.556 178.876 119.027 174.148 118.901 173.849C117.388 170.523 112.519 164.968 108.445 165.441C107.771 165.536 107.125 165.772 106.549 166.133C105.973 166.495 105.48 166.974 105.101 167.539C104.723 168.104 104.468 168.743 104.353 169.413C104.238 170.083 104.265 170.77 104.434 171.429C105.048 174.258 107.893 176.402 110.375 177.544C113.283 178.876 120.477 178.876 120.477 178.876Z" fill="#2E353A"/>
<path d="M119.5 161.138C119.579 161.138 117.546 156.591 117.38 156.316C115.513 153.164 110.06 148.191 106.065 149.105C105.406 149.274 104.789 149.58 104.256 150.003C103.723 150.427 103.286 150.957 102.972 151.561C102.658 152.165 102.475 152.828 102.435 153.508C102.395 154.187 102.499 154.867 102.739 155.504C103.661 158.238 106.719 160.059 109.311 160.925C112.353 161.942 119.5 161.138 119.5 161.138Z" fill="#2E353A"/>
<path d="M115.198 145.425C115.261 145.425 115.552 140.485 115.529 140.169C115.324 136.513 112.779 129.579 108.815 128.546C108.152 128.393 107.464 128.382 106.797 128.512C106.129 128.642 105.496 128.911 104.939 129.302C104.383 129.693 103.914 130.197 103.565 130.781C103.216 131.365 102.994 132.016 102.913 132.691C102.471 135.552 104.347 138.578 106.246 140.571C108.476 142.841 115.19 145.418 115.198 145.425Z" fill="#2E353A"/>
<path d="M111.203 267.676C111.203 267.676 110.935 265.588 110.627 261.963C110.32 258.338 109.95 253.153 109.784 246.92C109.698 243.768 109.666 240.427 109.729 236.849C109.729 235.053 109.824 233.256 109.895 231.333C109.958 230.403 110.028 229.458 110.092 228.512C110.155 227.567 110.312 226.574 110.415 225.597C110.955 221.619 111.71 217.673 112.676 213.777C113.645 209.797 114.749 205.802 115.828 201.815C116.908 197.827 117.971 193.84 118.807 189.869C119.653 186 120.224 182.077 120.517 178.127C120.72 174.428 120.593 170.717 120.139 167.04C119.749 163.733 119.165 160.452 118.389 157.214C117.696 154.188 116.884 151.469 116.143 149.066C115.403 146.663 114.638 144.59 114.008 142.904C112.723 139.515 111.849 137.64 111.849 137.64C111.849 137.64 112.763 139.5 114.118 142.857C114.796 144.535 115.576 146.592 116.396 148.979C117.215 151.367 118.066 154.086 118.823 157.104C119.673 160.346 120.334 163.634 120.8 166.954C121.343 170.668 121.554 174.423 121.431 178.175C121.22 182.181 120.728 186.168 119.957 190.105C119.169 194.124 118.224 198.158 117.223 202.177C116.222 206.196 115.214 210.199 114.339 214.155C113.47 218.009 112.812 221.907 112.369 225.833C112.29 226.786 112.148 227.693 112.117 228.654C112.085 229.615 112.022 230.553 111.975 231.483C111.975 233.28 111.92 235.139 111.975 236.896C111.975 240.435 112.093 243.776 112.251 246.857C112.542 253.027 113.039 258.157 113.409 261.726C113.779 265.296 114.095 267.329 114.095 267.329C114.122 267.516 114.112 267.706 114.066 267.889C114.02 268.072 113.938 268.244 113.826 268.396C113.713 268.547 113.572 268.675 113.409 268.772C113.247 268.869 113.068 268.933 112.881 268.96C112.694 268.988 112.504 268.978 112.321 268.932C112.138 268.886 111.966 268.804 111.814 268.691C111.663 268.579 111.535 268.437 111.438 268.275C111.341 268.113 111.277 267.933 111.25 267.747V267.707L111.203 267.676Z" fill="#2E353A"/>
<path d="M120.343 319.778H86.9794L77.5944 265.138H129.728L120.343 319.778Z" fill="#2E353A"/>
<path d="M179.112 324.948C219.181 324.948 251.664 292.465 251.664 252.396C251.664 212.327 219.181 179.845 179.112 179.845C139.043 179.845 106.561 212.327 106.561 252.396C106.561 292.465 139.043 324.948 179.112 324.948Z" fill="#6789FF"/>
<path d="M179.112 325.31C164.691 325.31 150.594 321.034 138.604 313.022C126.613 305.01 117.268 293.622 111.749 280.299C106.23 266.976 104.786 252.316 107.6 238.172C110.413 224.028 117.358 211.036 127.555 200.839C137.752 190.642 150.744 183.697 164.888 180.884C179.032 178.07 193.692 179.514 207.015 185.033C220.338 190.552 231.726 199.897 239.738 211.888C247.75 223.878 252.026 237.975 252.026 252.396C252.003 271.727 244.314 290.26 230.645 303.929C216.976 317.598 198.443 325.287 179.112 325.31ZM179.112 180.2C164.833 180.2 150.875 184.434 139.002 192.367C127.129 200.3 117.876 211.576 112.411 224.768C106.947 237.96 105.517 252.476 108.303 266.481C111.089 280.486 117.965 293.35 128.062 303.447C138.159 313.544 151.023 320.42 165.028 323.206C179.032 325.991 193.549 324.562 206.741 319.097C219.933 313.633 231.209 304.379 239.142 292.507C247.075 280.634 251.309 266.676 251.309 252.396C251.29 233.254 243.678 214.902 230.142 201.366C216.607 187.831 198.254 180.219 179.112 180.2Z" fill="#2E353A"/>
<path d="M159.893 300.11C153.756 297.845 148.13 294.382 143.345 289.921C138.518 285.281 134.777 279.63 132.392 273.373C129.687 266.358 128.347 258.89 128.444 251.372C128.392 244.953 129.525 238.579 131.785 232.57C133.829 227.059 136.889 221.98 140.808 217.598C148.551 209.107 158.565 203.012 169.664 200.034C175.11 198.573 180.724 197.831 186.362 197.827C191.04 197.81 195.703 198.366 200.247 199.482C204.637 200.569 208.839 202.309 212.713 204.644C216.541 206.948 219.971 209.857 222.87 213.256C225.904 216.91 228.217 221.105 229.686 225.62C231.388 230.76 232.227 236.147 232.168 241.561C232.11 251.978 228.379 262.04 221.633 269.977C218.717 273.307 215.252 276.113 211.389 278.274C208.064 280.203 204.302 281.25 200.459 281.316C197.822 281.348 195.246 280.518 193.123 278.952C192.051 278.165 191.179 277.137 190.575 275.952C189.972 274.768 189.654 273.458 189.648 272.128C185.151 278.463 179.068 281.631 171.398 281.631C165.152 281.631 160.161 279.496 156.426 275.225C152.691 270.954 150.831 265.7 150.847 259.465C150.864 254.721 151.69 250.015 153.29 245.549C154.855 241.033 157.097 236.782 159.94 232.941C162.762 229.153 166.366 226.016 170.507 223.745C174.637 221.412 179.302 220.19 184.045 220.199C187.341 220.165 190.592 220.959 193.501 222.508C196.336 224.011 198.635 226.357 200.081 229.221L200.696 227.22C200.977 226.379 201.452 225.617 202.084 224.995C202.716 224.373 203.485 223.909 204.33 223.64C205.175 223.372 206.072 223.308 206.946 223.452C207.821 223.596 208.649 223.945 209.364 224.47C209.82 224.842 210.181 225.316 210.42 225.854C210.658 226.392 210.766 226.979 210.735 227.567C210.735 228.13 210.642 228.689 210.459 229.221L200.68 261.726C199.577 265.446 199.025 267.996 199.025 269.378C199.025 271.721 200.22 272.89 202.611 272.884C205.731 272.884 208.796 271.45 211.807 268.582C215.05 265.346 217.553 261.445 219.143 257.148C221.015 252.447 221.972 247.433 221.964 242.373C222.01 237.915 221.358 233.478 220.033 229.221C218.934 225.551 217.18 222.11 214.856 219.064C212.649 216.289 209.984 213.912 206.976 212.035C203.973 210.144 200.695 208.727 197.26 207.835C193.74 206.918 190.118 206.454 186.48 206.456C181.855 206.462 177.254 207.112 172.808 208.387C168.244 209.693 163.894 211.654 159.893 214.21C155.858 216.758 152.205 219.864 149.042 223.437C145.78 227.2 143.237 231.529 141.541 236.211C139.654 241.315 138.708 246.719 138.751 252.16C138.649 258.606 139.819 265.008 142.195 271.001C144.222 276.198 147.442 280.846 151.595 284.57C155.599 288.054 160.224 290.752 165.228 292.521C170.503 294.389 176.062 295.322 181.658 295.279C187.639 295.29 193.586 294.384 199.293 292.592C199.869 292.398 200.474 292.304 201.082 292.316C201.66 292.293 202.236 292.395 202.77 292.615C203.305 292.836 203.785 293.169 204.179 293.593C204.935 294.378 205.356 295.427 205.353 296.517C205.428 297.393 205.182 298.268 204.662 298.977C204.142 299.687 203.382 300.185 202.524 300.378C195.402 302.557 188.002 303.693 180.554 303.75C173.503 303.803 166.502 302.569 159.893 300.11ZM184.794 268.842C187.765 266.698 189.974 263.661 191.098 260.174L197.402 238L196.984 237.101C196.583 236.37 196.099 235.688 195.542 235.068C194.789 234.203 193.969 233.396 193.092 232.657C191.964 231.749 190.683 231.05 189.309 230.592C185.741 229.33 181.828 229.465 178.356 230.971C176.468 231.784 174.733 232.914 173.226 234.312C171.653 235.777 170.254 237.419 169.058 239.205C167.808 241.054 166.752 243.027 165.906 245.092C165.057 247.149 164.401 249.281 163.943 251.459C163.492 253.53 163.26 255.643 163.25 257.763C163.242 259.122 163.323 260.48 163.494 261.829C163.641 263.023 163.905 264.201 164.282 265.343C164.616 266.378 165.09 267.362 165.693 268.267C166.249 269.104 166.948 269.838 167.757 270.434C168.619 271.063 169.588 271.531 170.618 271.813C171.828 272.149 173.081 272.311 174.337 272.293C178.109 272.334 181.787 271.12 184.794 268.842Z" fill="#2E353A"/>
<path d="M277.778 191.382C277.778 191.382 275.414 195.779 275.067 196.393C274.72 197.008 273.452 200.333 273.83 201.121C274.208 201.909 274.571 202.358 275.319 202.484C276.068 202.611 276.682 203.974 277.92 204.218C278.699 204.372 279.49 204.457 280.284 204.47C280.478 204.613 280.703 204.71 280.941 204.752C281.179 204.794 281.423 204.782 281.655 204.715C282.395 204.47 283.018 204.1 283.514 201.988C283.818 200.942 283.901 199.845 283.759 198.765L283.538 194.502L277.778 191.382Z" fill="white"/>
<path d="M281.214 205.172C280.839 205.167 280.474 205.057 280.158 204.856C279.379 204.835 278.604 204.748 277.841 204.596C277.133 204.403 276.499 204.003 276.021 203.446C275.808 203.192 275.538 202.992 275.233 202.863C274.828 202.772 274.452 202.58 274.142 202.304C273.832 202.029 273.597 201.678 273.46 201.287C272.947 200.27 274.437 196.653 274.713 196.196C275.075 195.589 277.392 191.24 277.415 191.192C277.467 191.102 277.552 191.034 277.652 191.003C277.748 190.965 277.855 190.965 277.951 191.003L283.704 194.116C283.763 194.15 283.812 194.198 283.848 194.256C283.884 194.313 283.904 194.379 283.909 194.447L284.129 198.702C284.273 199.819 284.185 200.954 283.869 202.035C283.381 204.139 282.742 204.722 281.749 205.053C281.578 205.121 281.397 205.161 281.214 205.172ZM277.943 191.917C277.376 192.973 275.721 196.07 275.406 196.598C274.973 197.315 273.932 200.444 274.177 200.932C274.571 201.72 274.87 202.004 275.382 202.09C275.849 202.228 276.263 202.503 276.572 202.878C276.944 203.327 277.44 203.656 277.999 203.824C278.749 203.969 279.511 204.051 280.276 204.068C280.367 204.068 280.456 204.099 280.528 204.155C280.669 204.258 280.832 204.327 281.004 204.359C281.176 204.39 281.352 204.382 281.521 204.336C282.065 204.155 282.632 203.966 283.097 201.893C283.383 200.901 283.466 199.861 283.341 198.836L283.128 194.738L277.943 191.917Z" fill="#2E353A"/>
<path d="M291.442 309.779C291.442 309.779 288.077 315.255 288.077 316.579C288.077 317.903 292.71 320.338 294.696 321.22C296.682 322.103 300.212 322.796 303.081 323.206C305.949 323.616 311.906 324.782 310.173 322.544C308.439 320.306 297.785 314.412 297.344 313.711C296.797 313.056 296.185 312.459 295.516 311.93L291.442 309.779Z" fill="white"/>
<path d="M308.738 324.262C307.057 324.194 305.382 324.007 303.727 323.703L303.017 323.592C299.014 322.978 296.162 322.3 294.539 321.575C294.255 321.449 287.683 318.51 287.683 316.579C287.683 315.184 290.756 310.141 291.103 309.566C291.157 309.482 291.24 309.421 291.336 309.395C291.432 309.369 291.534 309.379 291.623 309.424L295.697 311.583C296.428 312.143 297.092 312.785 297.675 313.498C297.864 313.719 299.598 314.806 301.276 315.862C304.854 318.092 309.298 320.874 310.448 322.308C310.866 322.828 310.968 323.277 310.748 323.647C310.527 324.018 309.834 324.262 308.738 324.262ZM291.56 310.299C290.283 312.41 288.447 315.744 288.447 316.603C288.447 317.462 291.82 319.542 294.83 320.881C296.406 321.575 299.18 322.229 303.12 322.836L303.821 322.946C305.271 323.175 309.684 323.876 310.046 323.261C310.046 323.261 310.046 323.104 309.81 322.812C308.746 321.48 304.176 318.62 300.835 316.508C298.148 314.83 297.186 314.215 296.989 313.923C296.467 313.3 295.88 312.732 295.24 312.229L291.56 310.299Z" fill="#2E353A"/>
<path d="M296.714 318.407L297.896 320.172C299.167 322.101 300.893 323.687 302.923 324.79C306.075 326.492 310.929 328.438 315.168 327.272C322.119 325.357 304.625 314.806 304.625 314.806C304.625 314.806 298.392 319.14 296.714 318.407Z" fill="white"/>
<path d="M312.41 328.021C308.912 328.021 305.318 326.555 302.734 325.137C300.651 324.006 298.876 322.383 297.565 320.409L296.383 318.636C296.333 318.568 296.307 318.487 296.307 318.403C296.307 318.32 296.333 318.238 296.383 318.171C296.438 318.105 296.513 318.059 296.597 318.039C296.68 318.019 296.768 318.027 296.847 318.06C297.864 318.502 301.859 316.24 304.373 314.499C304.436 314.456 304.51 314.433 304.586 314.433C304.661 314.433 304.736 314.456 304.798 314.499C306.114 315.287 317.651 322.379 317.154 325.972C317.044 326.76 316.366 327.359 315.247 327.674C314.321 327.916 313.367 328.033 312.41 328.021ZM297.486 318.848L298.219 319.96C299.458 321.83 301.135 323.369 303.104 324.443C306.319 326.177 310.984 328.013 315.066 326.894C316.295 326.547 316.374 326.011 316.398 325.838C316.752 323.261 308.226 317.469 304.633 315.279C303.38 316.114 299.613 318.596 297.486 318.848Z" fill="#2E353A"/>
<path d="M298.715 319.242C300.63 322.139 303.531 324.242 306.879 325.16C312.592 326.791 314.231 326.382 315.452 324.751" fill="white"/>
<path d="M312.332 326.594C310.442 326.488 308.574 326.133 306.776 325.539C303.322 324.606 300.332 322.435 298.376 319.439C298.35 319.395 298.332 319.346 298.325 319.295C298.317 319.244 298.321 319.191 298.334 319.142C298.347 319.092 298.37 319.045 298.402 319.004C298.433 318.963 298.473 318.929 298.518 318.904C298.609 318.852 298.717 318.837 298.819 318.864C298.92 318.89 299.008 318.955 299.062 319.045C300.935 321.842 303.747 323.877 306.989 324.782C312.56 326.358 314.081 325.964 315.137 324.514C315.201 324.432 315.294 324.378 315.397 324.364C315.5 324.349 315.604 324.375 315.689 324.435C315.772 324.498 315.827 324.591 315.842 324.695C315.857 324.798 315.83 324.903 315.767 324.987C315.381 325.528 314.862 325.96 314.261 326.242C313.659 326.523 312.994 326.645 312.332 326.594Z" fill="#2E353A"/>
<path d="M288.51 315.57C288.51 315.57 294.815 320.086 297.896 320.172Z" fill="white"/>
<path d="M297.864 320.566C294.712 320.48 288.526 316.075 288.266 315.893C288.183 315.831 288.127 315.738 288.111 315.635C288.095 315.532 288.12 315.427 288.179 315.342C288.209 315.299 288.246 315.263 288.289 315.236C288.332 315.208 288.381 315.189 288.431 315.18C288.482 315.171 288.534 315.173 288.584 315.184C288.634 315.196 288.681 315.217 288.723 315.247C288.786 315.295 294.972 319.699 297.888 319.778C297.993 319.782 298.092 319.828 298.164 319.904C298.237 319.981 298.276 320.083 298.274 320.188C298.272 320.24 298.259 320.291 298.238 320.338C298.216 320.385 298.185 320.427 298.147 320.462C298.109 320.497 298.065 320.525 298.016 320.542C297.967 320.56 297.916 320.568 297.864 320.566Z" fill="#2E353A"/>
<path d="M274.823 192.895C274.823 192.895 280.418 202.169 281.615 204.321C282.813 206.472 297.911 223.737 303.9 238.599C309.889 253.46 315.649 266.872 315.405 271.19C315.161 275.508 295.5 311.93 295.5 311.93L291.426 309.779C291.426 309.779 297.651 275.501 296.942 271.907C296.233 268.314 274.224 232.602 274.224 232.602C274.224 232.602 263.917 225.415 259.607 217.023" fill="#2E353A"/>
<path d="M275.619 216.07C275.619 216.07 272.506 222.775 272.506 223.737C272.506 224.698 290 276.226 295.035 287.967C298.222 295.488 301.021 303.168 303.419 310.976C303.419 310.976 305.342 313.34 303.9 315.767C302.458 318.194 296.714 319.841 295.516 317.682C294.318 315.523 282.569 304.286 277.542 293.002C272.514 281.718 265.32 262.562 261.238 255.375C255.861 246.173 251.061 236.646 246.865 226.849C241.585 214.391 236.156 200.885 236.156 200.885C243.272 201.479 250.435 200.676 257.243 198.521C268.275 194.928 273.003 188.048 273.003 188.048C273.003 188.048 275.808 195.219 276.525 196.606" fill="#2E353A"/>
<path d="M277.266 236.305C277.211 236.305 277.158 236.288 277.113 236.257C277.068 236.226 277.034 236.183 277.014 236.132L271.498 221.79C271.479 221.737 271.476 221.68 271.49 221.625C271.504 221.57 271.534 221.521 271.576 221.483L277.754 216.188C277.807 216.139 277.876 216.112 277.947 216.112C278.019 216.112 278.088 216.139 278.14 216.188C278.189 216.239 278.215 216.307 278.215 216.377C278.215 216.447 278.189 216.515 278.14 216.566L272.104 221.743L277.549 235.927C277.576 235.994 277.575 236.069 277.547 236.135C277.519 236.201 277.466 236.254 277.4 236.282L277.266 236.305Z" fill="white"/>
<path d="M271.742 221.956C271.675 221.957 271.61 221.931 271.561 221.885C271.533 221.86 271.512 221.83 271.497 221.796C271.482 221.762 271.474 221.725 271.474 221.688C271.474 221.649 271.474 217.323 269.535 214.596C269.055 213.895 268.669 213.343 268.346 212.894C267.337 211.46 267.03 211.026 266.848 210.309C266.723 209.471 266.723 208.618 266.848 207.78C266.862 207.71 266.901 207.648 266.958 207.606C267.015 207.564 267.085 207.544 267.156 207.551C267.191 207.556 267.225 207.568 267.256 207.586C267.286 207.604 267.313 207.628 267.335 207.657C267.356 207.686 267.371 207.718 267.38 207.753C267.388 207.787 267.39 207.823 267.384 207.859C267.273 208.63 267.273 209.412 267.384 210.183C267.542 210.798 267.81 211.176 268.803 212.587C269.118 213.036 269.512 213.587 269.992 214.289C271.742 216.802 271.986 220.411 272.025 221.444L283.223 221.01C283.294 221.01 283.363 221.037 283.416 221.085C283.468 221.133 283.501 221.199 283.507 221.27C283.509 221.306 283.504 221.341 283.492 221.375C283.479 221.408 283.461 221.439 283.436 221.465C283.412 221.49 283.383 221.511 283.35 221.525C283.317 221.539 283.282 221.546 283.247 221.546L271.773 221.987L271.742 221.956Z" fill="white"/>
<path d="M309.266 272.971C304.278 272.971 297.943 269.74 297.659 269.598C297.596 269.565 297.55 269.508 297.529 269.44C297.508 269.372 297.515 269.299 297.549 269.236C297.565 269.204 297.587 269.176 297.614 269.153C297.64 269.13 297.672 269.112 297.705 269.101C297.739 269.09 297.775 269.086 297.81 269.089C297.845 269.092 297.88 269.101 297.911 269.118C297.982 269.157 305.185 272.829 310.117 272.396C310.153 272.393 310.189 272.397 310.224 272.408C310.258 272.419 310.29 272.437 310.317 272.46C310.344 272.484 310.366 272.512 310.382 272.545C310.398 272.577 310.407 272.612 310.409 272.648C310.412 272.683 310.409 272.719 310.398 272.752C310.387 272.786 310.37 272.818 310.348 272.845C310.325 272.872 310.297 272.894 310.266 272.91C310.234 272.927 310.2 272.937 310.165 272.94C309.873 272.963 309.574 272.971 309.266 272.971Z" fill="white"/>
<path d="M308.597 277.132H308.534C304.113 276.021 299.148 271.955 298.936 271.781C298.887 271.73 298.861 271.662 298.861 271.592C298.861 271.522 298.887 271.454 298.936 271.403C298.958 271.375 298.985 271.353 299.016 271.336C299.047 271.319 299.081 271.308 299.117 271.305C299.152 271.301 299.187 271.304 299.221 271.314C299.255 271.324 299.287 271.341 299.314 271.364C299.361 271.403 304.397 275.532 308.699 276.604C308.733 276.613 308.765 276.629 308.793 276.65C308.822 276.672 308.845 276.699 308.863 276.73C308.88 276.761 308.892 276.794 308.896 276.83C308.9 276.865 308.898 276.901 308.888 276.935C308.873 276.998 308.835 277.054 308.781 277.09C308.727 277.126 308.661 277.141 308.597 277.132Z" fill="white"/>
<path d="M271.521 217.764C271.478 217.764 271.436 217.754 271.398 217.735C271.36 217.716 271.326 217.688 271.301 217.653C271.28 217.624 271.265 217.591 271.258 217.556C271.25 217.521 271.249 217.485 271.256 217.449C271.263 217.414 271.276 217.38 271.296 217.351C271.316 217.321 271.342 217.295 271.371 217.275C272.435 216.535 274.122 215.108 274.122 214.407C274.122 213.942 273.546 213.39 272.932 212.831C272.251 212.263 271.689 211.567 271.277 210.782C270.875 209.844 269.433 206.164 269.701 205.266C269.712 205.232 269.729 205.201 269.752 205.174C269.775 205.147 269.803 205.125 269.834 205.109C269.866 205.093 269.9 205.083 269.935 205.08C269.971 205.077 270.006 205.082 270.04 205.093C270.108 205.116 270.165 205.166 270.198 205.231C270.23 205.295 270.236 205.37 270.213 205.439C270.048 205.92 270.907 208.591 271.75 210.546C272.135 211.258 272.654 211.889 273.278 212.405C274.011 213.107 274.642 213.706 274.642 214.399C274.642 215.613 271.962 217.496 271.655 217.709C271.616 217.738 271.57 217.757 271.521 217.764Z" fill="white"/>
<path d="M245.265 219.308C245.208 219.311 245.152 219.295 245.105 219.263C245.057 219.231 245.022 219.185 245.002 219.131C244.983 219.078 244.981 219.02 244.997 218.965C245.013 218.91 245.046 218.862 245.092 218.828L247.298 217.062C249.418 215.376 250.726 211.066 250.742 211.019C250.763 210.95 250.811 210.893 250.874 210.859C250.938 210.825 251.012 210.817 251.081 210.837C251.149 210.859 251.206 210.907 251.24 210.97C251.274 211.033 251.282 211.107 251.262 211.176C251.207 211.357 249.883 215.691 247.637 217.48L245.431 219.245C245.384 219.285 245.326 219.307 245.265 219.308Z" fill="white"/>
<path d="M297.651 318.754C297.612 318.752 297.573 318.743 297.538 318.725C297.502 318.707 297.471 318.682 297.446 318.651C294.625 315.193 292.078 311.52 289.826 307.667C286.777 302.214 278.006 287.297 277.912 287.179C277.099 285.384 276.497 283.501 276.115 281.568C276.06 281.269 276.021 280.993 275.981 280.78C275.69 278.794 275.564 277.975 272.924 276.273C270.284 274.571 270.119 271.608 269.898 268.432C269.851 267.684 269.795 266.911 269.709 266.147C269.354 262.995 260.986 248.811 254.879 238.504C253.492 236.14 252.231 234.028 251.207 232.271C245.738 222.862 241.955 210.491 241.916 210.364C241.896 210.296 241.904 210.222 241.938 210.158C241.972 210.095 242.029 210.047 242.097 210.026C242.131 210.015 242.166 210.011 242.201 210.014C242.237 210.018 242.271 210.028 242.302 210.045C242.333 210.062 242.36 210.085 242.382 210.113C242.403 210.141 242.419 210.173 242.428 210.207C242.468 210.333 246.234 222.649 251.671 231.995C252.696 233.752 253.957 235.888 255.344 238.228C261.482 248.59 269.882 262.79 270.245 266.084C270.331 266.872 270.386 267.66 270.442 268.401C270.654 271.553 270.836 274.295 273.215 275.824C276.06 277.652 276.202 278.605 276.517 280.693C276.517 280.954 276.596 281.221 276.643 281.521C277.017 283.397 277.604 285.223 278.393 286.966C278.463 287.1 287.242 302.017 290.299 307.454C292.536 311.276 295.065 314.92 297.864 318.352C297.886 318.379 297.903 318.411 297.913 318.445C297.923 318.479 297.927 318.514 297.923 318.549C297.919 318.584 297.909 318.619 297.892 318.65C297.875 318.681 297.852 318.708 297.825 318.73C297.771 318.757 297.71 318.765 297.651 318.754Z" fill="white"/>
<path d="M236.156 200.885C236.156 200.885 236.66 206.464 238.866 208.229C241.073 209.994 247.692 211.539 256.738 209.805C265.785 208.071 275.713 200.349 276.596 197.67C277.478 194.991 272.987 188.056 272.987 188.056C272.987 188.056 267.77 195.463 253.208 197.89C238.646 200.317 236.156 200.885 236.156 200.885Z" fill="white"/>
<path d="M249.071 210.948C243.736 210.948 240.08 209.71 238.614 208.536C236.305 206.685 235.785 201.161 235.762 200.924C235.753 200.83 235.779 200.737 235.834 200.66C235.889 200.583 235.969 200.529 236.061 200.507C236.164 200.507 238.732 199.868 253.145 197.465C267.329 195.101 272.609 187.867 272.664 187.796C272.701 187.745 272.749 187.704 272.806 187.675C272.862 187.646 272.924 187.631 272.987 187.631C273.051 187.632 273.115 187.649 273.171 187.681C273.227 187.713 273.275 187.758 273.31 187.812C273.783 188.537 277.88 195.014 276.966 197.764C275.997 200.664 265.84 208.394 256.809 210.16C254.261 210.67 251.67 210.934 249.071 210.948ZM236.589 201.2C236.739 202.414 237.377 206.527 239.111 207.922C241.081 209.498 247.393 211.2 256.659 209.387C265.769 207.606 275.437 199.876 276.225 197.512C276.848 195.637 274.303 190.901 272.947 188.71C271.545 190.389 265.918 196.141 253.247 198.245C241.569 200.199 237.645 200.94 236.589 201.2Z" fill="#2E353A"/>
<path d="M294.318 146.804C290.717 144.44 262.68 122.597 260.04 121.636C257.4 120.674 252.16 121.636 252.16 121.636C252.16 121.636 235.911 123.621 232.507 124.993C232.184 125.119 224.864 129.327 224.627 129.547C221.987 131.706 210.443 137.017 207.339 143.731C203.816 151.328 234.769 197.063 236.211 200.893C237.653 204.722 245.21 205.668 252.16 204.707C259.11 203.745 265.209 202.343 270.245 196.582C271.158 195.435 271.923 194.177 272.522 192.839C273.241 191.344 273.425 189.647 273.042 188.033C271.245 180.547 266.659 158.963 263.633 144.693C268.676 147.947 279.165 154.558 285.264 156.891C293.412 160.043 299.645 157.852 299.645 155.212C299.645 152.573 297.911 149.2 294.318 146.804Z" fill="white"/>
<path d="M284.586 151.461C279.782 150.987 275.129 149.52 270.922 147.151C270.922 147.151 277.155 144.275 277.392 142.833C277.628 141.391 268.763 142.596 269.961 142.116C271.159 141.635 272.837 140.437 269.961 140.437C267.668 140.287 265.409 139.803 263.255 139.003L263.578 144.669C266.32 146.442 270.67 149.192 275.036 151.714C279.142 153.872 283.37 155.79 287.699 157.458C287.699 157.458 292.97 152.423 284.586 151.461Z" fill="#6789FF"/>
<g style="mix-blend-mode:multiply">
<path d="M252.105 204.699L252.995 204.573C254.918 203.643 258.172 203.06 261.34 202.272C266.131 201.074 260.86 201.074 252.948 197C245.036 192.926 241.916 186.937 234.729 178.309C227.543 169.68 224.667 165.362 226.109 164.408C227.551 163.455 223.233 163.447 221.554 162.486C219.876 161.524 223.918 161.532 227.306 158.175C230.695 154.818 220.829 158.892 219.876 158.656C218.922 158.42 220.829 155.299 220.829 155.299L213.879 162.486L230.655 191.248L231.617 191.965L232.72 193.541L235.872 200.317C235.998 200.554 236.085 200.751 236.14 200.885C237.59 204.722 245.155 205.668 252.105 204.699Z" fill="#6789FF"/>
</g>
<path d="M220.333 137.687C225.636 136.899 240.419 145.331 240.419 145.331C232.295 139.815 225.187 134.646 220.325 132.313L211.365 138.617L210.751 139.192C211.791 138.987 215.778 138.333 220.333 137.687Z" fill="#6789FF"/>
<path opacity="0.5" d="M284.586 151.461C279.782 150.987 275.129 149.52 270.922 147.151C270.922 147.151 277.155 144.275 277.392 142.833C277.628 141.391 268.763 142.596 269.961 142.116C271.159 141.635 272.837 140.437 269.961 140.437C267.668 140.287 265.409 139.803 263.255 139.003L263.578 144.669C266.32 146.442 270.67 149.192 275.036 151.714C279.142 153.872 283.37 155.79 287.699 157.458C287.699 157.458 292.97 152.423 284.586 151.461Z" fill="white"/>
<path opacity="0.5" d="M252.105 204.699L252.995 204.573C254.918 203.643 258.172 203.06 261.34 202.272C266.131 201.074 260.86 201.074 252.948 197C245.036 192.926 241.916 186.937 234.729 178.309C227.543 169.68 224.667 165.362 226.109 164.408C227.551 163.455 223.233 163.447 221.554 162.486C219.876 161.524 223.918 161.532 227.306 158.175C230.695 154.818 220.829 158.892 219.876 158.656C218.922 158.42 220.829 155.299 220.829 155.299L213.879 162.486L230.655 191.248L231.617 191.965L232.72 193.541L235.872 200.317C235.998 200.554 236.085 200.751 236.14 200.885C237.59 204.722 245.155 205.668 252.105 204.699Z" fill="white"/>
<path opacity="0.5" d="M220.333 137.687C225.636 136.899 240.419 145.331 240.419 145.331C232.295 139.815 225.187 134.646 220.325 132.313L211.365 138.617L210.751 139.192C211.791 138.987 215.778 138.333 220.333 137.687Z" fill="white"/>
<path d="M247.062 205.447C241.75 205.447 236.967 204.179 235.785 201.027C235.439 200.097 233.106 196.299 230.151 191.523C217.598 171.161 204.415 148.971 206.929 143.558C209.293 138.452 216.282 134.236 220.908 131.446C222.086 130.777 223.226 130.04 224.32 129.24C224.604 129.011 231.94 124.788 232.334 124.63C235.754 123.251 251.419 121.328 252.089 121.25C252.286 121.21 257.471 120.28 260.174 121.25C261.923 121.888 273.909 130.958 283.538 138.247C288.755 142.187 293.254 145.607 294.531 146.458C298.55 149.137 299.984 152.714 299.984 155.173C299.955 155.629 299.813 156.071 299.571 156.459C299.329 156.847 298.994 157.169 298.597 157.395C296.272 158.971 291.19 159.562 285.067 157.222C280.788 155.583 273.57 151.54 264.161 145.496C267.313 160.508 271.639 180.728 273.365 187.914C273.771 189.618 273.579 191.41 272.821 192.989C272.206 194.364 271.411 195.652 270.457 196.819C265.194 202.831 258.787 204.155 252.136 205.069C250.455 205.311 248.76 205.438 247.062 205.447ZM256.833 121.604C255.283 121.628 253.737 121.767 252.207 122.022C252.018 122.022 235.951 124.015 232.625 125.355C232.192 125.552 225.171 129.594 224.816 129.855C223.695 130.679 222.524 131.434 221.31 132.116C216.771 134.858 209.915 139.003 207.646 143.936C205.093 149.452 221.83 176.567 230.821 191.153C234.028 196.354 236.148 199.821 236.526 200.79C237.921 204.51 245.549 205.242 252.05 204.344C258.551 203.446 264.807 202.161 269.89 196.354C270.783 195.235 271.53 194.006 272.112 192.698C272.789 191.285 272.962 189.683 272.601 188.159C270.836 180.814 266.391 159.893 263.192 144.819C263.177 144.742 263.184 144.662 263.213 144.589C263.243 144.516 263.293 144.454 263.357 144.409C263.422 144.367 263.497 144.344 263.574 144.344C263.651 144.344 263.727 144.367 263.791 144.409C273.546 150.713 281.001 154.913 285.351 156.568C291.166 158.798 296.067 158.27 298.148 156.836C298.434 156.674 298.678 156.447 298.86 156.173C299.043 155.899 299.157 155.586 299.196 155.26C299.196 153.006 297.856 149.704 294.097 147.198C292.797 146.332 288.29 142.92 283.065 138.964C273.98 132.092 261.545 122.676 259.906 122.077C258.914 121.753 257.876 121.593 256.833 121.604Z" fill="#2E353A"/>
<path d="M211.137 138.822C211.137 138.822 208.261 141.974 207.142 143.432C201.137 151.146 182.028 175.866 181.815 177.859C181.602 179.853 182.509 181.193 187.182 182.989C191.854 184.786 223.114 153.463 223.114 153.463" fill="white"/>
<g style="mix-blend-mode:multiply" opacity="0.8">
<path d="M211.184 138.917L210.782 139.177C210.199 139.823 208.938 141.233 207.961 142.392L193.446 161.43C193.446 161.43 192.997 161.934 192.288 162.769C186.843 170.027 182.099 176.575 181.807 177.741C181.807 177.781 181.807 177.82 181.807 177.852C181.618 179.735 182.532 181.169 187.182 182.958C188.009 183.273 189.648 182.564 191.799 181.185C190.706 180.965 189.662 180.549 188.718 179.956C186.078 178.277 188.237 176.599 188.237 176.599C188.237 176.599 191.665 177.97 195.046 178.892C195.747 178.364 196.48 177.796 197.229 177.198C196.508 176.726 195.826 176.199 195.188 175.622C192.311 172.99 189.916 170.35 189.916 170.35L211.885 139.689L211.184 138.917Z" fill="#6789FF"/>
</g>
<path opacity="0.5" d="M211.184 138.917L210.782 139.177C210.199 139.823 208.938 141.233 207.961 142.392L193.446 161.43C193.446 161.43 192.997 161.934 192.288 162.769C186.843 170.027 182.099 176.575 181.807 177.741C181.807 177.781 181.807 177.82 181.807 177.852C181.618 179.735 182.532 181.169 187.182 182.958C188.009 183.273 189.648 182.564 191.799 181.185C190.706 180.965 189.662 180.549 188.718 179.956C186.078 178.277 188.237 176.599 188.237 176.599C188.237 176.599 191.665 177.97 195.046 178.892C195.747 178.364 196.48 177.796 197.229 177.198C196.508 176.726 195.826 176.199 195.188 175.622C192.311 172.99 189.916 170.35 189.916 170.35L211.885 139.689L211.184 138.917Z" fill="white"/>
<path d="M187.544 183.446C187.367 183.448 187.191 183.419 187.024 183.36C182.674 181.681 181.145 180.208 181.405 177.844C181.618 175.882 197.418 155.307 206.811 143.219C207.93 141.785 210.711 138.72 210.829 138.593C210.863 138.552 210.905 138.517 210.952 138.492C211 138.467 211.052 138.452 211.105 138.447C211.159 138.443 211.213 138.45 211.264 138.467C211.314 138.484 211.361 138.512 211.401 138.548C211.441 138.584 211.473 138.628 211.495 138.677C211.517 138.726 211.529 138.779 211.531 138.832C211.532 138.886 211.522 138.939 211.501 138.989C211.481 139.039 211.451 139.084 211.413 139.121C211.413 139.121 208.528 142.273 207.433 143.708C192.256 163.234 182.343 176.67 182.217 177.93C182.036 179.609 182.816 180.917 187.339 182.658C190.594 183.911 210.357 165.732 222.846 153.211C222.921 153.137 223.021 153.095 223.126 153.095C223.231 153.095 223.332 153.137 223.406 153.211C223.48 153.285 223.522 153.386 223.522 153.491C223.522 153.596 223.48 153.696 223.406 153.77C220.278 156.859 193.58 183.446 187.544 183.446Z" fill="#2E353A"/>
<path d="M274.389 137.388L263.578 144.669C265.154 144.448 272.624 141.801 272.624 141.801" fill="white"/>
<path d="M263.578 145.063C263.499 145.064 263.421 145.04 263.356 144.995C263.291 144.95 263.242 144.885 263.216 144.811C263.182 144.729 263.178 144.638 263.204 144.553C263.23 144.469 263.284 144.395 263.357 144.346L274.177 137.065C274.219 137.035 274.267 137.014 274.317 137.003C274.367 136.992 274.419 136.992 274.47 137.001C274.521 137.011 274.569 137.03 274.612 137.059C274.655 137.087 274.692 137.124 274.72 137.167C274.778 137.255 274.798 137.362 274.778 137.465C274.757 137.569 274.697 137.66 274.61 137.719L265.745 143.692C268.464 142.857 272.443 141.454 272.498 141.43C272.603 141.396 272.717 141.404 272.815 141.454C272.913 141.503 272.988 141.59 273.022 141.694C273.057 141.799 273.048 141.913 272.999 142.011C272.949 142.109 272.863 142.184 272.758 142.218C272.451 142.321 265.201 144.882 263.633 145.102L263.578 145.063Z" fill="#2E353A"/>
<path d="M273.948 141.974C273.857 141.972 273.769 141.939 273.698 141.88C273.628 141.822 273.58 141.741 273.562 141.651C273.544 141.549 273.567 141.443 273.626 141.357C273.685 141.272 273.775 141.213 273.877 141.194L276.304 140.753C276.408 140.734 276.514 140.757 276.601 140.815C276.688 140.874 276.748 140.965 276.769 141.068C276.78 141.12 276.779 141.173 276.768 141.225C276.758 141.276 276.736 141.325 276.706 141.369C276.676 141.412 276.638 141.449 276.593 141.477C276.548 141.505 276.498 141.524 276.446 141.533L274.019 141.974H273.948Z" fill="#2E353A"/>
<path d="M193.848 170.208C192.18 170.158 190.52 170.473 188.986 171.13Z" fill="white"/>
<path d="M188.986 171.548C188.882 171.567 188.773 171.545 188.686 171.485C188.598 171.425 188.537 171.333 188.517 171.228C188.497 171.124 188.52 171.016 188.58 170.928C188.639 170.84 188.732 170.779 188.836 170.76C190.427 170.076 192.149 169.751 193.88 169.806C193.931 169.81 193.982 169.824 194.028 169.848C194.074 169.871 194.116 169.904 194.149 169.943C194.183 169.983 194.209 170.029 194.224 170.078C194.24 170.128 194.246 170.18 194.242 170.232C194.232 170.335 194.182 170.431 194.103 170.499C194.023 170.567 193.921 170.601 193.816 170.594C192.213 170.548 190.618 170.851 189.144 171.485C189.097 171.517 189.043 171.539 188.986 171.548Z" fill="#2E353A"/>
<path d="M217.409 159.405C217.409 159.405 223.485 157.545 225.092 156.308Z" fill="white"/>
<path d="M217.409 159.799C217.305 159.813 217.199 159.786 217.114 159.722C217.03 159.659 216.975 159.564 216.96 159.46C216.945 159.355 216.973 159.249 217.036 159.165C217.1 159.081 217.194 159.025 217.299 159.011C217.354 159.011 223.319 157.167 224.856 155.985C224.938 155.921 225.043 155.893 225.146 155.906C225.25 155.919 225.344 155.973 225.407 156.056C225.469 156.139 225.496 156.243 225.483 156.346C225.47 156.448 225.417 156.542 225.336 156.607C223.682 157.876 217.78 159.688 217.527 159.759C217.491 159.78 217.451 159.794 217.409 159.799Z" fill="#2E353A"/>
<path d="M226.582 155.693C226.582 155.693 227.574 154.826 227.945 154.826Z" fill="white"/>
<path d="M226.581 156.087C226.525 156.087 226.469 156.074 226.418 156.051C226.366 156.028 226.32 155.995 226.282 155.953C226.209 155.878 226.169 155.778 226.169 155.673C226.169 155.569 226.209 155.469 226.282 155.394C226.728 154.934 227.288 154.602 227.905 154.432C228.01 154.432 228.11 154.474 228.184 154.548C228.258 154.622 228.299 154.722 228.299 154.826C228.297 154.93 228.255 155.029 228.182 155.103C228.108 155.176 228.009 155.218 227.905 155.22C227.499 155.425 227.127 155.691 226.802 156.008C226.739 156.057 226.662 156.085 226.581 156.087Z" fill="#2E353A"/>
<path d="M263.578 145.063C263.481 145.062 263.387 145.025 263.314 144.96C263.242 144.895 263.196 144.805 263.184 144.708L262.199 134.583C262.194 134.531 262.199 134.479 262.214 134.429C262.229 134.379 262.254 134.333 262.287 134.292C262.32 134.252 262.36 134.219 262.406 134.194C262.452 134.17 262.502 134.154 262.554 134.149C262.605 134.144 262.658 134.149 262.708 134.164C262.757 134.179 262.804 134.204 262.844 134.237C262.884 134.27 262.917 134.31 262.942 134.356C262.967 134.402 262.982 134.452 262.987 134.504L263.98 144.637C263.985 144.689 263.98 144.741 263.965 144.79C263.95 144.84 263.926 144.885 263.893 144.925C263.86 144.965 263.819 144.997 263.773 145.021C263.727 145.045 263.677 145.059 263.625 145.063H263.578Z" fill="#2E353A"/>
<path d="M181.792 177.962C181.792 177.962 180.397 183.297 189.341 185.511C193.588 186.559 221.696 193.391 221.696 193.391C221.696 193.391 224.21 188.001 222.775 188.001C221.341 188.001 195.424 170.767 195.424 170.767" fill="white"/>
<path d="M185.968 184.337L218.56 192.658L219.426 190.594C219.426 190.594 207.149 188.135 199.482 184.29C191.815 180.444 191.326 181.65 188.694 179.979C186.063 178.309 188.214 176.622 188.214 176.622C188.214 176.622 195.408 179.499 199.246 179.735C203.083 179.971 198.048 178.301 195.172 175.661C193.982 174.574 192.879 173.478 192.02 172.58L181.776 177.954C181.776 177.954 180.783 181.823 185.968 184.337Z" fill="#6789FF"/>
<path opacity="0.5" d="M185.968 184.337L218.56 192.658L219.426 190.594C219.426 190.594 207.149 188.135 199.482 184.29C191.815 180.444 191.326 181.65 188.694 179.979C186.063 178.309 188.214 176.622 188.214 176.622C188.214 176.622 195.408 179.499 199.246 179.735C203.083 179.971 198.048 178.301 195.172 175.661C193.982 174.574 192.879 173.478 192.02 172.58L181.776 177.954C181.776 177.954 180.783 181.823 185.968 184.337Z" fill="white"/>
<path d="M221.696 193.848H221.601C221.601 193.848 193.493 186.985 189.246 185.968C185.7 185.093 183.297 183.604 182.107 181.626C181.414 180.53 181.166 179.211 181.413 177.938C181.441 177.838 181.507 177.752 181.596 177.699C181.686 177.646 181.793 177.63 181.894 177.655C181.994 177.682 182.079 177.748 182.131 177.838C182.182 177.928 182.196 178.035 182.17 178.135C181.991 179.212 182.216 180.318 182.8 181.24C183.88 183.052 186.118 184.392 189.435 185.18C193.375 186.165 218.371 192.272 221.475 193.013C222.444 190.869 223.051 188.789 222.775 188.466C221.278 188.466 199.569 174.046 195.235 171.13C195.148 171.071 195.088 170.98 195.067 170.877C195.046 170.774 195.067 170.666 195.125 170.578C195.153 170.535 195.19 170.499 195.233 170.47C195.276 170.442 195.324 170.422 195.375 170.412C195.425 170.403 195.478 170.404 195.528 170.414C195.578 170.425 195.626 170.446 195.668 170.476C205.873 177.276 221.523 187.465 222.791 187.662C222.92 187.664 223.046 187.697 223.158 187.759C223.271 187.821 223.367 187.91 223.437 188.017C224.091 189.049 222.539 192.564 222.043 193.619C222.012 193.686 221.963 193.743 221.902 193.783C221.841 193.823 221.769 193.846 221.696 193.848Z" fill="#2E353A"/>
<path d="M222.775 188.025C222.775 188.025 232.003 192.343 232.72 193.541C233.437 194.738 235.084 200.964 235.084 202.886C235.084 204.809 234.848 204.801 233.65 204.801C232.452 204.801 229.332 200.247 228.615 199.285C227.897 198.324 226.251 198.324 224.06 196.921C223.45 196.534 222.925 196.026 222.518 195.428C222.112 194.831 221.832 194.156 221.696 193.446L222.775 188.025Z" fill="white"/>
<path d="M233.681 205.195C232.649 205.195 230.947 203.139 228.709 200.05C228.551 199.829 228.425 199.648 228.331 199.529C227.881 199.082 227.317 198.766 226.7 198.615C225.706 198.262 224.756 197.794 223.871 197.221C223.208 196.804 222.638 196.255 222.196 195.608C221.754 194.962 221.45 194.231 221.302 193.462C221.298 193.423 221.298 193.383 221.302 193.344L222.381 187.946C222.394 187.888 222.418 187.833 222.454 187.785C222.489 187.738 222.534 187.698 222.586 187.67C222.64 187.643 222.699 187.629 222.76 187.629C222.82 187.629 222.879 187.643 222.933 187.67C224.509 188.395 232.31 192.099 233.051 193.336C233.792 194.573 235.502 200.908 235.502 202.886C235.502 204.864 235.139 205.195 233.681 205.195ZM222.098 193.43C222.238 194.077 222.506 194.689 222.887 195.23C223.267 195.771 223.752 196.231 224.312 196.582C225.149 197.121 226.045 197.56 226.983 197.89C227.742 198.088 228.428 198.498 228.961 199.072C229.056 199.191 229.19 199.372 229.347 199.6C232.231 203.588 233.287 204.423 233.681 204.423C234.722 204.423 234.722 204.423 234.722 202.902C234.722 201.042 233.082 194.92 232.358 193.753C231.9 192.965 226.581 190.286 223.035 188.608L222.098 193.43Z" fill="#2E353A"/>
<path d="M218.835 192.887C218.796 192.894 218.756 192.894 218.717 192.887C218.668 192.872 218.621 192.846 218.582 192.813C218.542 192.78 218.509 192.738 218.485 192.692C218.462 192.646 218.448 192.595 218.444 192.543C218.441 192.491 218.448 192.439 218.465 192.39L219.899 187.938C219.914 187.887 219.938 187.84 219.972 187.798C220.005 187.757 220.046 187.723 220.093 187.698C220.14 187.673 220.191 187.658 220.244 187.654C220.297 187.649 220.35 187.655 220.4 187.672C220.451 187.688 220.497 187.714 220.537 187.749C220.577 187.784 220.61 187.827 220.633 187.874C220.656 187.922 220.669 187.974 220.672 188.027C220.674 188.08 220.666 188.133 220.648 188.182L219.214 192.634C219.183 192.71 219.131 192.774 219.064 192.819C218.996 192.864 218.917 192.888 218.835 192.887Z" fill="#2E353A"/>
<path d="M288.802 154.448C288.802 154.448 286.438 162.596 285.445 167.387C284.452 172.178 277.778 191.358 277.778 191.358L283.53 194.951C283.53 194.951 296.233 168.632 298.652 162.864C301.071 157.096 300.33 152.793 297.935 150.398" fill="white"/>
<path d="M283.53 195.369C283.457 195.367 283.387 195.345 283.325 195.306L277.573 191.713C277.497 191.665 277.439 191.594 277.408 191.509C277.378 191.425 277.378 191.332 277.407 191.248C277.471 191.058 284.121 172.044 285.059 167.34C285.997 162.635 288.408 154.448 288.408 154.361C288.437 154.257 288.507 154.168 288.601 154.115C288.696 154.062 288.808 154.048 288.912 154.078C289.017 154.107 289.105 154.176 289.159 154.271C289.212 154.366 289.225 154.477 289.196 154.582C289.196 154.661 286.793 162.769 285.847 167.489C284.949 171.989 279.157 188.679 278.266 191.216L283.381 194.407C284.957 191.09 296.075 168.002 298.282 162.706C300.409 157.592 300.181 153.25 297.651 150.673C297.578 150.6 297.537 150.501 297.537 150.398C297.537 150.294 297.578 150.195 297.651 150.122C297.724 150.049 297.824 150.008 297.927 150.008C298.03 150.008 298.13 150.049 298.203 150.122C300.977 152.888 301.268 157.592 298.991 163.014C296.627 168.711 284.019 194.88 283.885 195.148C283.862 195.198 283.828 195.242 283.785 195.278C283.743 195.313 283.694 195.339 283.641 195.353L283.53 195.369Z" fill="#2E353A"/>
<path d="M278.865 188.616C279.299 188.616 284.76 191.626 284.76 191.626Z" fill="#2E353A"/>
<path d="M241.073 145.331C239.749 145.11 232.681 140.477 227.827 136.726C222.972 132.975 220.325 132.313 220.325 132.313L217.015 134.519C216.514 132.907 216.673 131.161 217.456 129.665C218.78 127.238 223.414 124.811 228.047 123.046C232.681 121.281 237.976 119.776 241.293 119.776C244.611 119.776 245.486 121.1 245.486 122.865C245.486 124.63 245.486 130.146 244.382 134.338C243.279 138.53 241.073 145.331 241.073 145.331Z" fill="white"/>
<g style="mix-blend-mode:multiply">
<path d="M238.993 122.321C238.993 122.321 236.952 128.436 234.911 130.272C233.335 131.594 231.629 132.753 229.82 133.731C229.82 133.731 228.599 129.453 225.541 129.453C222.484 129.453 217.795 131.494 217.795 131.494C217.795 131.494 217.795 129.862 221.664 127.821L225.541 125.788L234.509 122.321H238.993Z" fill="#6789FF"/>
</g>
<path opacity="0.5" d="M238.993 122.321C238.993 122.321 236.952 128.436 234.911 130.272C233.335 131.594 231.629 132.753 229.82 133.731C229.82 133.731 228.599 129.453 225.541 129.453C222.484 129.453 217.795 131.494 217.795 131.494C217.795 131.494 217.795 129.862 221.664 127.821L225.541 125.788L234.509 122.321H238.993Z" fill="white"/>
<path d="M241.073 145.725H241.002C239.536 145.481 232.279 140.666 227.606 137.057C223.548 133.905 221.042 132.967 220.404 132.762L217.252 134.866C217.2 134.897 217.143 134.918 217.083 134.926C217.023 134.934 216.963 134.93 216.905 134.913C216.848 134.894 216.797 134.862 216.755 134.82C216.712 134.777 216.68 134.726 216.661 134.669C216.391 133.819 216.293 132.923 216.372 132.034C216.452 131.145 216.708 130.281 217.126 129.492C218.702 126.545 224.58 123.976 227.929 122.692C230.561 121.691 237.133 119.358 241.325 119.358C244.406 119.358 245.911 120.493 245.911 122.841C245.911 124.654 245.911 130.178 244.792 134.417C243.673 138.656 241.498 145.402 241.475 145.449C241.45 145.534 241.396 145.608 241.323 145.658C241.25 145.709 241.161 145.732 241.073 145.725ZM220.325 131.919H220.419C220.53 131.919 223.209 132.644 228.071 136.403C232.633 139.925 238.993 144.117 240.813 144.834C241.286 143.353 243.059 137.742 243.965 134.181C245.06 130.044 245.06 124.599 245.06 122.81C245.06 121.478 244.611 120.115 241.262 120.115C238.409 120.115 233.634 121.313 228.158 123.401C222.681 125.489 218.859 127.845 217.772 129.839C217.12 131.077 216.924 132.505 217.22 133.873L220.073 131.974C220.148 131.927 220.237 131.908 220.325 131.919Z" fill="#2E353A"/>
<path d="M221.428 117.325C224.013 120.176 225.828 123.64 226.7 127.388C228.134 133.621 237.149 140.95 239.308 140.95C241.467 140.95 241.317 130.264 240.6 127.152C239.883 124.039 237.007 115.647 237.007 115.647C237.007 115.647 225.533 110.131 221.428 117.325Z" fill="white"/>
<path d="M239.339 141.344C237.023 141.344 227.803 133.81 226.345 127.475C225.481 123.801 223.703 120.405 221.176 117.601C221.115 117.54 221.076 117.461 221.065 117.375C221.053 117.29 221.07 117.203 221.113 117.128C225.321 109.705 237.086 115.229 237.204 115.292C237.251 115.315 237.294 115.347 237.329 115.386C237.365 115.425 237.391 115.471 237.409 115.521C237.527 115.86 240.301 123.96 241.018 127.065C241.64 129.791 241.932 138.751 240.277 140.839C240.171 140.99 240.03 141.115 239.868 141.202C239.705 141.29 239.524 141.338 239.339 141.344ZM221.948 117.27C224.476 120.133 226.25 123.58 227.109 127.301C228.544 133.487 237.503 140.556 239.339 140.556C239.339 140.556 239.489 140.556 239.654 140.343C240.994 138.664 240.907 130.099 240.245 127.238C239.583 124.378 237.093 117.113 236.715 115.931C235.399 115.347 225.667 111.273 221.948 117.27Z" fill="#2E353A"/>
<g style="mix-blend-mode:multiply">
<path d="M238.993 122.321C238.993 122.321 236.952 128.436 234.911 130.272C233.335 131.594 231.629 132.753 229.82 133.731C229.82 133.731 228.599 129.453 225.541 129.453C222.484 129.453 217.795 131.494 217.795 131.494C217.795 131.494 217.795 129.862 221.664 127.821L225.541 125.788L234.509 122.321H238.993Z" fill="#6789FF"/>
</g>
<path opacity="0.5" d="M238.993 122.321C238.993 122.321 236.952 128.436 234.911 130.272C233.335 131.594 231.629 132.753 229.82 133.731C229.82 133.731 228.599 129.453 225.541 129.453C222.484 129.453 217.795 131.494 217.795 131.494C217.795 131.494 217.795 129.862 221.664 127.821L225.541 125.788L234.509 122.321H238.993Z" fill="white"/>
<path d="M221.428 117.325C224.013 120.176 225.828 123.64 226.7 127.388C228.134 133.621 237.149 140.95 239.308 140.95C241.467 140.95 241.317 130.264 240.6 127.152C239.883 124.039 237.007 115.647 237.007 115.647C237.007 115.647 225.533 110.131 221.428 117.325Z" fill="white"/>
<path d="M239.339 141.344C237.023 141.344 227.803 133.81 226.345 127.475C225.481 123.801 223.703 120.405 221.176 117.601C221.115 117.54 221.076 117.461 221.065 117.375C221.053 117.29 221.07 117.203 221.113 117.128C225.321 109.705 237.086 115.229 237.204 115.292C237.251 115.315 237.294 115.347 237.329 115.386C237.365 115.425 237.391 115.471 237.409 115.521C237.527 115.86 240.301 123.96 241.018 127.065C241.64 129.791 241.932 138.751 240.277 140.839C240.171 140.99 240.03 141.115 239.868 141.202C239.705 141.29 239.524 141.338 239.339 141.344ZM221.948 117.27C224.476 120.133 226.25 123.58 227.109 127.301C228.544 133.487 237.503 140.556 239.339 140.556C239.339 140.556 239.489 140.556 239.654 140.343C240.994 138.664 240.907 130.099 240.245 127.238C239.583 124.378 237.093 117.113 236.715 115.931C235.399 115.347 225.667 111.273 221.948 117.27Z" fill="#2E353A"/>
<path d="M213.855 105.773C215.546 110.371 217.637 114.811 220.104 119.043C223.745 125.024 230.774 128.412 234.674 126.852C238.575 125.292 241.23 120.257 240.19 112.455C239.962 110.738 238.465 110.036 237.984 108.515C236.258 102.999 234.501 97.6805 233.894 95.6553C233.106 93.047 226.865 90.4466 220.364 92.2669C213.863 94.0872 212.815 99.5244 213.855 105.773Z" fill="white"/>
<path d="M235.454 100.998C235.454 100.998 233.09 102.755 227.779 101.739C222.468 100.722 218.812 100.951 219.017 102.353C219.222 103.756 219.631 105.608 219.631 105.608C219.631 105.608 213.256 100.092 219.032 98.6261C223.193 97.5465 225.597 99.1856 226.613 99.4141C227.63 99.6426 235.454 100.998 235.454 100.998Z" fill="#6789FF"/>
<path opacity="0.5" d="M235.454 100.998C235.454 100.998 233.09 102.755 227.779 101.739C222.468 100.722 218.812 100.951 219.017 102.353C219.222 103.756 219.631 105.608 219.631 105.608C219.631 105.608 213.256 100.092 219.032 98.6261C223.193 97.5465 225.597 99.1856 226.613 99.4141C227.63 99.6426 235.454 100.998 235.454 100.998Z" fill="white"/>
<path d="M232.499 127.656C228.268 127.656 222.76 124.197 219.765 119.272C217.277 115.015 215.168 110.549 213.461 105.923C213.457 105.902 213.457 105.881 213.461 105.86C212.161 98.0981 214.383 93.5198 220.246 91.8808C227.046 89.9738 233.437 92.7791 234.265 95.5292C234.548 96.4827 235.053 98.1533 235.754 100.257C236.542 102.621 237.432 105.482 238.346 108.413C238.575 108.996 238.912 109.531 239.339 109.989C239.977 110.658 240.404 111.499 240.569 112.408C241.735 121.163 238.362 125.804 234.816 127.223C234.079 127.513 233.292 127.661 232.499 127.656ZM214.241 105.671C215.92 110.231 217.993 114.637 220.435 118.838C224.099 124.851 231.026 127.885 234.532 126.482C237.803 125.174 240.907 120.816 239.796 112.503C239.652 111.743 239.294 111.041 238.764 110.478C238.266 109.932 237.883 109.291 237.637 108.594C236.723 105.671 235.801 102.802 235.045 100.446C234.375 98.366 233.839 96.6876 233.547 95.7184C232.886 93.5277 227.062 90.7618 220.498 92.5664C215.077 94.1266 213.036 98.3976 214.241 105.671Z" fill="#2E353A"/>
<path d="M218.544 114.355C218.544 114.355 214.375 112.534 214.115 114.355C213.855 116.175 215.691 117.507 217.496 118.295C217.946 118.541 218.459 118.647 218.97 118.601C219.48 118.555 219.966 118.358 220.364 118.035" fill="white"/>
<path d="M218.812 118.988C218.306 118.982 217.807 118.872 217.346 118.665C214.769 117.562 213.485 116.025 213.729 114.339C213.75 114.146 213.818 113.961 213.926 113.801C214.035 113.64 214.181 113.508 214.352 113.417C215.605 112.716 218.386 113.898 218.702 114.039C218.79 114.086 218.858 114.165 218.89 114.26C218.923 114.355 218.918 114.458 218.877 114.55C218.836 114.641 218.761 114.713 218.669 114.752C218.576 114.79 218.472 114.792 218.378 114.756C217.338 114.299 215.423 113.724 214.73 114.102C214.667 114.137 214.614 114.187 214.575 114.247C214.536 114.308 214.514 114.377 214.509 114.449C214.257 116.206 216.369 117.388 217.661 117.94C218.041 118.151 218.473 118.246 218.906 118.214C219.339 118.182 219.752 118.023 220.096 117.759C220.172 117.695 220.269 117.662 220.368 117.666C220.468 117.671 220.561 117.712 220.631 117.783C220.701 117.854 220.741 117.948 220.744 118.047C220.747 118.147 220.713 118.243 220.648 118.318C220.142 118.765 219.486 119.005 218.812 118.988Z" fill="#2E353A"/>
<path d="M235.557 104.063C235.557 104.063 230.916 102.96 232.901 109.146C233.295 110.367 235.998 111.794 235.998 111.794C235.998 111.794 235.778 113.779 234.674 114" fill="white"/>
<path d="M234.666 114.394C234.576 114.393 234.489 114.361 234.419 114.303C234.349 114.246 234.3 114.167 234.28 114.079C234.27 114.028 234.27 113.975 234.28 113.923C234.291 113.872 234.311 113.824 234.341 113.78C234.37 113.737 234.407 113.7 234.451 113.671C234.495 113.643 234.544 113.623 234.595 113.614C235.163 113.496 235.454 112.558 235.565 112.038C234.84 111.628 232.901 110.462 232.531 109.296C231.79 106.995 231.853 105.356 232.712 104.426C233.768 103.283 235.565 103.701 235.644 103.717C235.745 103.741 235.832 103.804 235.887 103.893C235.941 103.981 235.959 104.088 235.935 104.189C235.924 104.24 235.903 104.288 235.873 104.33C235.843 104.372 235.805 104.408 235.761 104.435C235.716 104.463 235.667 104.481 235.616 104.489C235.565 104.496 235.513 104.494 235.462 104.481C235.462 104.481 234.028 104.158 233.287 104.962C232.547 105.765 232.641 107.073 233.287 109.051C233.54 109.839 235.202 110.95 236.187 111.47C236.256 111.51 236.311 111.567 236.348 111.637C236.384 111.707 236.399 111.786 236.392 111.864C236.392 112.101 236.101 114.15 234.753 114.418L234.666 114.394Z" fill="#2E353A"/>
<path d="M232.239 118.413C232.239 118.413 228.93 119.075 227.606 117.53Z" fill="white"/>
<path d="M230.655 118.988C230.047 119.036 229.435 118.958 228.858 118.757C228.282 118.556 227.753 118.238 227.306 117.822C227.273 117.782 227.247 117.737 227.231 117.688C227.215 117.638 227.209 117.587 227.213 117.535C227.217 117.483 227.231 117.433 227.255 117.387C227.278 117.341 227.311 117.3 227.35 117.266C227.389 117.233 227.435 117.207 227.484 117.191C227.533 117.175 227.585 117.169 227.637 117.173C227.688 117.177 227.738 117.191 227.785 117.214C227.831 117.238 227.872 117.27 227.905 117.31C229.064 118.665 232.137 118.098 232.168 118.098C232.219 118.086 232.271 118.085 232.322 118.095C232.372 118.104 232.421 118.124 232.463 118.153C232.506 118.181 232.543 118.219 232.571 118.262C232.598 118.305 232.617 118.354 232.625 118.405C232.636 118.456 232.636 118.508 232.626 118.559C232.616 118.609 232.597 118.658 232.568 118.701C232.54 118.744 232.503 118.781 232.46 118.81C232.417 118.839 232.369 118.859 232.318 118.87C231.768 118.957 231.212 118.997 230.655 118.988Z" fill="#2E353A"/>
<path d="M227.385 108.043C227.385 108.043 224.958 107.16 223.634 108.263C222.926 108.756 222.378 109.447 222.058 110.249" fill="white"/>
<path d="M222.09 110.635H221.995C221.945 110.622 221.898 110.6 221.857 110.569C221.815 110.537 221.78 110.498 221.754 110.454C221.727 110.409 221.71 110.36 221.703 110.308C221.696 110.257 221.699 110.205 221.712 110.155C222.041 109.276 222.622 108.514 223.382 107.964C224.864 106.735 227.417 107.641 227.519 107.68C227.569 107.697 227.614 107.723 227.653 107.758C227.692 107.793 227.723 107.835 227.745 107.882C227.767 107.929 227.779 107.98 227.781 108.032C227.783 108.084 227.774 108.136 227.756 108.185C227.72 108.283 227.647 108.363 227.552 108.407C227.458 108.451 227.35 108.456 227.251 108.421C227.251 108.421 225.021 107.633 223.887 108.571C223.262 109.024 222.774 109.64 222.476 110.352C222.451 110.434 222.399 110.506 222.33 110.557C222.26 110.608 222.176 110.636 222.09 110.635Z" fill="#2E353A"/>
<path d="M227.322 111.817C227.637 112.55 227.574 113.275 227.18 113.44C226.786 113.606 226.219 113.157 225.904 112.424C225.589 111.691 225.66 110.974 226.054 110.801C226.448 110.627 227.015 111.108 227.322 111.817Z" fill="#2E353A"/>
<path d="M235.257 107.956C235.573 108.681 235.502 109.406 235.116 109.579C234.729 109.753 234.146 109.288 233.839 108.563C233.532 107.838 233.587 107.105 233.981 106.939C234.375 106.774 234.942 107.231 235.257 107.956Z" fill="#2E353A"/>
<path d="M217.386 115.403C217.386 115.403 220.017 113.488 219.537 111.809C219.056 110.131 218.103 110.131 219.064 109.177C220.025 108.224 220.735 107.735 220.498 106.301C220.262 104.867 216.424 102.464 217.622 101.029C218.82 99.5953 218.339 97.8775 228.165 100.305C237.992 102.732 244.225 98.8704 241.349 95.2771C238.472 91.6838 236.077 91.2031 236.077 91.2031C236.077 91.2031 241.593 88.8391 237.038 86.4042C232.484 83.9693 222.177 84.0402 216.424 88.5633C210.672 93.0864 211.87 96.924 211.87 96.924C211.87 96.924 208.757 97.4047 208.513 102.204C208.268 107.003 217.386 115.403 217.386 115.403Z" fill="#2E353A"/>
<path d="M233.067 99.351C230.972 99.2631 228.91 98.8042 226.976 97.9957C225.46 97.3493 223.845 96.9655 222.2 96.861C218.394 96.861 217.606 99.0201 217.575 99.1146C217.564 99.1483 217.547 99.1794 217.524 99.2061C217.501 99.2329 217.472 99.2546 217.441 99.2701C217.409 99.2856 217.375 99.2945 217.339 99.2962C217.304 99.2979 217.269 99.2924 217.236 99.2801C217.202 99.2694 217.171 99.2521 217.144 99.2292C217.117 99.2063 217.095 99.1783 217.079 99.1468C217.062 99.1153 217.053 99.0809 217.05 99.0457C217.047 99.0104 217.051 98.9749 217.062 98.9413C217.102 98.8388 217.984 96.3172 222.2 96.3172C223.908 96.4182 225.585 96.8155 227.157 97.4914C229.607 98.366 232.153 99.2722 235.352 98.563C237.086 98.1769 238.102 97.5544 238.354 96.727C238.685 95.6632 237.661 94.5521 237.653 94.5364C237.603 94.4861 237.575 94.4181 237.575 94.3472C237.575 94.2763 237.603 94.2083 237.653 94.1581C237.705 94.1094 237.774 94.0823 237.846 94.0823C237.918 94.0823 237.987 94.1094 238.039 94.1581C238.086 94.2133 239.284 95.5135 238.866 96.8767C238.543 97.909 237.401 98.6497 235.462 99.0831C234.676 99.2571 233.873 99.3469 233.067 99.351Z" fill="white"/>
<path d="M215.486 98.6891C215.415 98.6831 215.348 98.6492 215.301 98.5947C215.254 98.5402 215.23 98.4695 215.234 98.3976C215.234 98.3424 215.699 93.1416 220.309 91.9754C223.028 91.2898 226.172 91.802 228.701 92.2118C230.277 92.4718 231.688 92.7003 232.279 92.4718C232.344 92.4579 232.411 92.4678 232.47 92.4998C232.528 92.5318 232.572 92.5837 232.595 92.6459C232.618 92.7082 232.618 92.7766 232.595 92.8387C232.571 92.9008 232.526 92.9524 232.468 92.984C231.743 93.2519 230.364 93.0313 228.615 92.7476C226.132 92.3378 223.043 91.8414 220.443 92.4954C216.204 93.575 215.778 98.3897 215.77 98.437C215.768 98.4722 215.759 98.5066 215.744 98.5384C215.729 98.5701 215.707 98.5985 215.681 98.6219C215.654 98.6454 215.624 98.6634 215.59 98.6749C215.557 98.6864 215.522 98.6912 215.486 98.6891Z" fill="white"/>
<path d="M212.437 106.821C212.383 106.82 212.331 106.804 212.287 106.774C211.58 106.181 211.031 105.42 210.691 104.562C210.352 103.703 210.231 102.774 210.341 101.857C210.561 98.3897 213.225 98.3503 213.256 98.3503C213.321 98.3612 213.379 98.3945 213.421 98.4443C213.463 98.4941 213.486 98.557 213.486 98.6221C213.486 98.6872 213.463 98.7502 213.421 98.8C213.379 98.8497 213.321 98.883 213.256 98.894C213.162 98.894 211.066 98.9413 210.892 101.888C210.786 102.713 210.886 103.551 211.185 104.327C211.483 105.103 211.971 105.792 212.602 106.333C212.631 106.352 212.656 106.378 212.675 106.407C212.694 106.437 212.707 106.47 212.713 106.504C212.719 106.539 212.718 106.574 212.71 106.609C212.701 106.643 212.686 106.675 212.665 106.703C212.641 106.741 212.608 106.773 212.567 106.794C212.527 106.814 212.482 106.824 212.437 106.821Z" fill="white"/>
<path d="M214.068 104.583C214.017 104.583 213.966 104.569 213.923 104.541C213.879 104.513 213.845 104.473 213.824 104.426C213.629 104.066 213.514 103.669 213.486 103.262C213.457 102.854 213.516 102.445 213.658 102.062C214.006 101.311 214.625 100.719 215.392 100.407C215.424 100.393 215.459 100.386 215.495 100.386C215.53 100.386 215.565 100.393 215.598 100.407C215.63 100.421 215.659 100.442 215.683 100.467C215.708 100.493 215.727 100.523 215.739 100.557C215.765 100.623 215.763 100.696 215.735 100.761C215.707 100.826 215.655 100.877 215.589 100.903C214.962 101.169 214.452 101.654 214.155 102.267C214.043 102.581 214 102.916 214.027 103.249C214.054 103.582 214.151 103.905 214.312 104.197C214.342 104.263 214.345 104.338 214.319 104.406C214.294 104.474 214.244 104.529 214.178 104.56C214.144 104.575 214.106 104.583 214.068 104.583Z" fill="white"/>
<path d="M214.675 108.854C214.631 108.853 214.589 108.842 214.55 108.822C214.512 108.801 214.479 108.772 214.454 108.736L213.438 107.318C213.396 107.259 213.379 107.186 213.391 107.116C213.403 107.045 213.442 106.981 213.501 106.939C213.559 106.898 213.632 106.881 213.703 106.893C213.774 106.904 213.837 106.944 213.879 107.003L214.895 108.429C214.936 108.486 214.952 108.558 214.94 108.627C214.928 108.696 214.889 108.758 214.832 108.799C214.788 108.835 214.732 108.855 214.675 108.854Z" fill="white"/>
</svg>
